<?xml version="1.0" encoding="utf-8"?>
<!-- Generator: Adobe Illustrator 27.2.0, SVG Export Plug-In . SVG Version: 6.00 Build 0)  -->
<svg version="1.1" id="Capa_2" xmlns="http://www.w3.org/2000/svg" xmlns:xlink="http://www.w3.org/1999/xlink" x="0px" y="0px"
	 viewBox="0 0 40 40" style="enable-background:new 0 0 40 40;" xml:space="preserve">
<style type="text/css">
	.st0{fill:#7A503F;}
</style>
<g>
	<path class="st0" d="M26.2,26.4c-1.9,1.3-4.2,1.4-6.2,0c-1.9,1.2-4.3,1.3-6.3,0c-1.3,0.8-2.9,0.8-4.2-0.1c-2.3,1.3-5.2,0.5-6.5-1.8
		c-1.5-2.6-0.3-5.9,2.5-7.1c0.8-5.3,5-8.9,10.4-9.6c-0.9-0.9-1.5-2-1.5-3.2c-0.1-1.5,0.8-2.7,2-3.1c1.4-0.5,2.8,0.1,3.7,1.4
		c0.8-1.3,2.1-1.8,3.5-1.4c1.3,0.4,2.2,1.5,2.2,3c0,1.3-0.7,2.4-1.6,3.4c5.3,0.6,9.6,4.4,10.4,9.6c1.9,0.9,3.1,2.7,3.1,4.8
		c0,1.7-1,3.2-2.3,4c-1.6,1-3.4,1-4.9,0.1C29.1,27.2,27.6,27.3,26.2,26.4z"/>
	<path class="st0" d="M33.4,29.1l-1.6,6c-0.6,2.2-2.2,3.6-4.5,3.6l-14.7,0c-1.9,0-3.8-1-4.4-2.8l-1.9-6.8c1.1,0.1,1.9-0.2,2.8-0.5
		c1.4,0.9,2.9,1,4.4,0.2c2,1.1,4.3,1.2,6.3,0c2,1.1,4.3,1.2,6.3,0c1.5,0.8,3,0.6,4.4-0.1C31.6,28.9,32.6,29.3,33.4,29.1z"/>
</g>
<g>
	<path class="st0" d="M26.2,26.4c-1.9,1.3-4.2,1.4-6.2,0c-1.9,1.2-4.3,1.3-6.3,0c-1.3,0.8-2.9,0.8-4.2-0.1c-2.3,1.3-5.2,0.5-6.5-1.8
		c-1.5-2.6-0.3-5.9,2.5-7.1c0.8-5.3,5-8.9,10.4-9.6c-0.9-0.9-1.5-2-1.5-3.2c-0.1-1.5,0.8-2.7,2-3.1c1.4-0.5,2.8,0.1,3.7,1.4
		c0.8-1.3,2.1-1.8,3.5-1.4c1.3,0.4,2.2,1.5,2.2,3c0,1.3-0.7,2.4-1.6,3.4c5.3,0.6,9.6,4.4,10.4,9.6c1.9,0.9,3.1,2.7,3.1,4.8
		c0,1.7-1,3.2-2.3,4c-1.6,1-3.4,1-4.9,0.1C29.1,27.2,27.6,27.3,26.2,26.4z"/>
	<path class="st0" d="M33.4,29.1l-1.6,6c-0.6,2.2-2.2,3.6-4.5,3.6l-14.7,0c-1.9,0-3.8-1-4.4-2.8l-1.9-6.8c1.1,0.1,1.9-0.2,2.8-0.5
		c1.4,0.9,2.9,1,4.4,0.2c2,1.1,4.3,1.2,6.3,0c2,1.1,4.3,1.2,6.3,0c1.5,0.8,3,0.6,4.4-0.1C31.6,28.9,32.6,29.3,33.4,29.1z"/>
</g>
</svg>
