<?xml version="1.0" encoding="utf-8"?>
<!-- Generator: Adobe Illustrator 27.2.0, SVG Export Plug-In . SVG Version: 6.00 Build 0)  -->
<svg version="1.1" id="Capa_2" xmlns="http://www.w3.org/2000/svg" xmlns:xlink="http://www.w3.org/1999/xlink" x="0px" y="0px"
	 viewBox="0 0 40 40" style="enable-background:new 0 0 40 40;" xml:space="preserve">
<style type="text/css">
	.st0{fill:#7A503F;}
</style>
<path class="st0" d="M39.2,32.8c0,3.4-2.4,6.3-5.8,6.3l-26.7,0c-3.4,0-5.9-2.9-5.9-6.2l0-25.7c0-3.4,2.4-6.4,5.9-6.4l26.7,0
	c3.2,0,5.7,2.9,5.7,6L39.2,32.8z M21.7,22.4l3.9-0.1l0.7-4.8l-4.6,0c0.1-1.5-0.4-3.3,0.4-4.7c0.8-1.3,2.7-1.2,4.3-1l0.1-4.1
	c-1.9,0-3.6-0.4-5.5-0.1c-2.6,0.4-4.4,2.7-4.5,5.2l-0.1,4.7L12,17.6l0,4.8l4.4,0.1l0,12l5.2,0L21.7,22.4z"/>
</svg>
