<?xml version="1.0" encoding="utf-8"?>
<!-- Generator: Adobe Illustrator 27.2.0, SVG Export Plug-In . SVG Version: 6.00 Build 0)  -->
<svg version="1.1" id="Capa_2" xmlns="http://www.w3.org/2000/svg" xmlns:xlink="http://www.w3.org/1999/xlink" x="0px" y="0px"
	 viewBox="0 0 40 40" style="enable-background:new 0 0 40 40;" xml:space="preserve">
<style type="text/css">
	.st0{fill:#7A503F;}
</style>
<path class="st0" d="M35.5,22.4c-1.7,2.1-3.4,3.9-5.3,5.7l-9,8.2c-0.6,0.6-1.7,0.6-2.3,0c-4.2-3.8-8.4-7.5-12.2-11.6
	c-1.9-2-3.5-3.9-4.6-6.4c-1.4-3.3-1.5-6.9,0.2-10c2.9-5.4,9.9-6.8,14.7-2.9c1.2,1,2.1,2.1,3.1,3.4c1.2-1.9,2.6-3.3,4.4-4.3
	c4.8-2.6,10.5-1,13.2,3.8C40.3,12.9,38.9,18.2,35.5,22.4z"/>
</svg>
