<?xml version="1.0" encoding="utf-8"?>
<!-- Generator: Adobe Illustrator 27.2.0, SVG Export Plug-In . SVG Version: 6.00 Build 0)  -->
<svg version="1.1" id="Capa_2" xmlns="http://www.w3.org/2000/svg" xmlns:xlink="http://www.w3.org/1999/xlink" x="0px" y="0px"
	 viewBox="0 0 40 40" style="enable-background:new 0 0 40 40;" xml:space="preserve">
<style type="text/css">
	.st0{fill:#7A503F;}
</style>
<path class="st0" d="M39.1,19.1c-0.7-1.1-1.9-2-3.5-2.2c-1.1-4.5-4-8.3-8.2-10.4C28.3,5.1,30,4.3,29,3.3C28,2.2,26.3,4,25.3,5.6
	c-9-3.2-18.7,2.2-20.8,11.3c-2.5,0.2-4.3,2.3-4.3,4.8c0,2.7,2,4.9,4.7,4.8c2.2,6.2,8,10.4,14.6,10.6c7,0.2,13.3-4,15.7-10.6
	c2,0,3.5-1.2,4.2-2.8C40.1,22.2,40,20.6,39.1,19.1z"/>
</svg>
