<?xml version="1.0" encoding="utf-8"?>
<!-- Generator: Adobe Illustrator 27.2.0, SVG Export Plug-In . SVG Version: 6.00 Build 0)  -->
<svg version="1.1" id="Capa_2" xmlns="http://www.w3.org/2000/svg" xmlns:xlink="http://www.w3.org/1999/xlink" x="0px" y="0px"
	 viewBox="0 0 40 40" style="enable-background:new 0 0 40 40;" xml:space="preserve">
<style type="text/css">
	.st0{fill:#7A503F;}
</style>
<g>
	<path class="st0" d="M40,33.7c0,3.6-2.8,6.3-6.3,6.3L6.8,40c-3.7,0-6.4-2.8-6.4-6.5l0-26.9c0-3.6,2.8-6.3,6.4-6.3l27.2,0
		c3.4,0,5.9,3,5.9,6.2L40,33.7z M32.8,26.2l0-12c0-3.6-3.1-6.6-6.6-6.6l-11.5,0c-3.5,0-7,2.6-7,6.2l0,12.9c0,3.6,3.5,6.2,7,6.2
		l11.2,0C29.5,32.9,32.8,30.1,32.8,26.2z"/>
	<path class="st0" d="M26.3,30.6l-11.6,0c-2.7,0-4.9-1.9-4.9-4.7l0-11.4c0-2.7,2.2-4.8,4.9-4.8l11.5,0c2.6,0,4.5,2.2,4.5,4.7l0,11.2
		C30.7,28.2,29,30.3,26.3,30.6z M28.5,13.5c0-0.8-0.7-1.5-1.5-1.5s-1.5,0.7-1.5,1.5s0.7,1.5,1.5,1.5S28.5,14.3,28.5,13.5z
		 M27.1,20.2c0-3.8-3.1-6.9-6.9-6.9s-6.9,3.1-6.9,6.9s3.1,6.9,6.9,6.9S27.1,24,27.1,20.2z"/>
	<circle class="st0" cx="20.2" cy="20.2" r="4.5"/>
</g>
</svg>
