<?xml version="1.0" encoding="UTF-8"?>
<svg id="Capa_2" data-name="Capa 2" xmlns="http://www.w3.org/2000/svg" viewBox="0 0 38.9 28.1">
  <defs>
    <style>
      .cls-1 {
        fill: #e5688e;
      }
    </style>
  </defs>
  <g id="Capa_2-2" data-name="Capa 2">
    <path class="cls-1" d="M38.9,8.8c0-.3,0-.7-.1-1-.8-.5-1.5-1.1-2.1-1.8-.2-.2-.3-.4-.4-.6,0,0,0-.1-.1-.1-.6-1-.9-2.2-.9-3.5v-.4c-.3-.5-.5-1-.8-1.4H4.5c-.3.5-.6,1-.9,1.6v.1c0,1.3-.3,2.5-.9,3.5,0,.1-.1.1-.1.2-.1.1-.2.3-.3.4-.6.8-1.3,1.4-2.1,1.9-.1.3-.2.7-.2,1,0,1.5,1,2.8,2.3,3.3h.1v.1c-.3.5-.5,1.2-.5,1.9,0,1.6,1.1,2.9,2.5,3.4h0c.3.1.7.1,1,.1h.5c-.3.5-.4,1-.5,1.5v.3c0,1.9,1.6,3.5,3.5,3.5h.3c.5,0,1-.2,1.5-.5v.5c0,.3.1.7.1,1h0c.4,1.5,1.8,2.5,3.4,2.5.7,0,1.3-.2,1.9-.5h.1c.5,1.3,1.8,2.3,3.3,2.3s2.8-1,3.3-2.3h.1c.5.3,1.2.5,1.9.5,1.6,0,2.9-1.1,3.4-2.5h0c.1-.3.1-.7.1-1v-.5c.4.3.9.4,1.5.5h.3c1.9,0,3.5-1.6,3.5-3.5v-.3c0-.5-.2-1-.5-1.5h.5c.3,0,.7-.1,1-.1h0c1.5-.4,2.5-1.8,2.5-3.4,0-.7-.2-1.3-.5-1.9v-.1c1.3-.4,2.3-1.7,2.3-3.2ZM25.6,14.1c-1.2,2.1-3.5,3.5-6.1,3.5s-4.9-1.4-6.1-3.5c-.6-1-.9-2.2-.9-3.5,0-.3,0-.6.1-.9.1-.6.2-1.2.5-1.8h13.1c.2.6.4,1.1.5,1.8,0,.3.1.6.1.9-.2,1.2-.6,2.4-1.2,3.5Z"/>
  </g>
</svg>