<?xml version="1.0" encoding="utf-8"?>
<!-- Generator: Adobe Illustrator 27.2.0, SVG Export Plug-In . SVG Version: 6.00 Build 0)  -->
<svg version="1.1" id="Capa_2" xmlns="http://www.w3.org/2000/svg" xmlns:xlink="http://www.w3.org/1999/xlink" x="0px" y="0px"
	 viewBox="0 0 40 40" style="enable-background:new 0 0 40 40;" xml:space="preserve">
<style type="text/css">
	.st0{fill:#FFFFFF;stroke:#1D1D1B;stroke-width:9.961617e-02;stroke-miterlimit:10;}
</style>
<path class="st0" d="M39.4,16.8c0-0.3,0-0.7-0.1-1c-0.8-0.5-1.5-1.1-2.1-1.8c-0.2-0.2-0.3-0.4-0.4-0.6c0,0,0-0.1-0.1-0.1
	c-0.6-1-0.9-2.2-0.9-3.5c0-0.1,0-0.2,0-0.4C35.5,8.9,35.3,8.4,35,8H5C4.7,8.5,4.4,9,4.1,9.6c0,0,0,0.1,0,0.1c0,1.3-0.3,2.5-0.9,3.5
	c0,0.1-0.1,0.1-0.1,0.2c-0.1,0.1-0.2,0.3-0.3,0.4c-0.6,0.8-1.3,1.4-2.1,1.9c-0.1,0.3-0.2,0.7-0.2,1c0,1.5,1,2.8,2.3,3.3
	c0,0,0,0,0.1,0c0,0,0,0,0,0.1c-0.3,0.5-0.5,1.2-0.5,1.9c0,1.6,1.1,2.9,2.5,3.4v0c0.3,0.1,0.7,0.1,1,0.1c0.2,0,0.3,0,0.5,0
	C6.1,26,6,26.5,5.9,27c0,0.1,0,0.2,0,0.3c0,1.9,1.6,3.5,3.5,3.5c0.1,0,0.2,0,0.3,0c0.5,0,1-0.2,1.5-0.5c0,0.2,0,0.3,0,0.5
	c0,0.3,0.1,0.7,0.1,1h0c0.4,1.5,1.8,2.5,3.4,2.5c0.7,0,1.3-0.2,1.9-0.5c0,0,0.1,0,0.1,0c0.5,1.3,1.8,2.3,3.3,2.3s2.8-1,3.3-2.3
	c0,0,0.1,0,0.1,0c0.5,0.3,1.2,0.5,1.9,0.5c1.6,0,2.9-1.1,3.4-2.5h0c0.1-0.3,0.1-0.7,0.1-1c0-0.2,0-0.3,0-0.5
	c0.4,0.3,0.9,0.4,1.5,0.5c0.1,0,0.2,0,0.3,0c1.9,0,3.5-1.6,3.5-3.5c0-0.1,0-0.2,0-0.3c0-0.5-0.2-1-0.5-1.5c0.2,0,0.3,0,0.5,0
	c0.3,0,0.7-0.1,1-0.1v0c1.5-0.4,2.5-1.8,2.5-3.4c0-0.7-0.2-1.3-0.5-1.9c0,0,0-0.1,0-0.1C38.4,19.6,39.4,18.3,39.4,16.8z M26.1,22.1
	c-1.2,2.1-3.5,3.5-6.1,3.5c-2.6,0-4.9-1.4-6.1-3.5c-0.6-1-0.9-2.2-0.9-3.5c0-0.3,0-0.6,0.1-0.9c0.1-0.6,0.2-1.2,0.5-1.8h13.1
	c0.2,0.6,0.4,1.1,0.5,1.8c0,0.3,0.1,0.6,0.1,0.9C27.1,19.8,26.7,21,26.1,22.1z"/>
</svg>
