<?xml version="1.0" encoding="utf-8"?>
<!-- Generator: Adobe Illustrator 27.2.0, SVG Export Plug-In . SVG Version: 6.00 Build 0)  -->
<svg version="1.1" id="Capa_2" xmlns="http://www.w3.org/2000/svg" xmlns:xlink="http://www.w3.org/1999/xlink" x="0px" y="0px"
	 viewBox="0 0 40 40" style="enable-background:new 0 0 40 40;" xml:space="preserve">
<style type="text/css">
	.st0{fill:#FEFEFE;}
</style>
<path class="st0" d="M20,0.9C9.5,0.9,0.9,9.5,0.9,20c0,10.5,8.5,19.1,19.1,19.1S39.1,30.5,39.1,20C39.1,9.5,30.5,0.9,20,0.9z
	 M28.3,26.9c-0.5,0.7-1.3,0.8-2,0.4l-6-3.6c-1.3-1-2.2-2.4-2.3-4.1l0-8.1c0-0.8,0.7-1.4,1.4-1.4c0.8,0,1.5,0.6,1.5,1.4l0,7.9
	c0,0.7,0.5,1.5,1,1.9l6,3.6C28.6,25.3,28.7,26.2,28.3,26.9z"/>
</svg>
