<?xml version="1.0" encoding="utf-8"?>
<!-- Generator: Adobe Illustrator 27.2.0, SVG Export Plug-In . SVG Version: 6.00 Build 0)  -->
<svg version="1.1" id="Capa_2" xmlns="http://www.w3.org/2000/svg" xmlns:xlink="http://www.w3.org/1999/xlink" x="0px" y="0px"
	 viewBox="0 0 40 40" style="enable-background:new 0 0 40 40;" xml:space="preserve">
<style type="text/css">
	.st0{fill:#7A503F;}
</style>
<g>
	<path class="st0" d="M36.1,29.3l-32.3,0c-0.5,0-0.8-0.5-0.8-0.9c0.6-8.9,5.6-16.5,15-17.8c-1.2-1.3-1.4-3.1-0.3-4.3
		c1.1-1.2,3-1.3,4.2-0.1c1.2,1.2,1.2,3.1-0.1,4.5c5.5,0.7,10.1,4.1,12.6,9c1.4,2.8,2.1,5.8,2.3,8.9C36.9,28.7,36.6,29.3,36.1,29.3z"
		/>
	<path class="st0" d="M37.8,34.7l-35.7,0c-0.9,0-1.5-0.9-1.5-1.6c0-0.7,0.6-1.6,1.5-1.6l35.7,0c0.8,0,1.4,0.9,1.5,1.5
		C39.4,33.8,38.9,34.7,37.8,34.7z"/>
</g>
</svg>
