<?xml version="1.0" encoding="utf-8"?>
<!-- Generator: Adobe Illustrator 27.2.0, SVG Export Plug-In . SVG Version: 6.00 Build 0)  -->
<svg version="1.1" id="Capa_2" xmlns="http://www.w3.org/2000/svg" xmlns:xlink="http://www.w3.org/1999/xlink" x="0px" y="0px"
	 viewBox="0 0 40 40" style="enable-background:new 0 0 40 40;" xml:space="preserve">
<style type="text/css">
	.st0{fill:#7A503F;}
</style>
<path class="st0" d="M33.3,40L6.8,40C2.9,40,0,37.2,0,33.3L0,7.2C0,3.1,2.6,0,6.8,0l27,0.1c3.7,0,6.2,3.1,6.2,6.6l0,26.7
	C40,37.1,37.2,40,33.3,40z M25.1,24.2l0-8.7c2,1.5,3.9,2.1,6.2,1.9l0-4.3c-3.5,0.2-6.1-2.6-6.2-6.1L20.6,7l-0.1,17.8
	c0,2.4-2.3,3.9-4.4,3.4c-2.1-0.4-3.6-2.6-2.8-4.9c0.6-1.7,2.6-2.9,4.7-2.3l0-4.6c-4-0.4-7.6,1.8-8.8,5.4c-1.2,3.4,0,7.4,3.3,9.4
	c2.8,1.7,5.9,1.8,8.7,0.1C23.5,30.1,25.1,27.5,25.1,24.2z"/>
</svg>
