<?xml version="1.0" encoding="utf-8"?>
<!-- Generator: Adobe Illustrator 27.2.0, SVG Export Plug-In . SVG Version: 6.00 Build 0)  -->
<svg version="1.1" id="Capa_2" xmlns="http://www.w3.org/2000/svg" xmlns:xlink="http://www.w3.org/1999/xlink" x="0px" y="0px"
	 viewBox="0 0 40 40" style="enable-background:new 0 0 40 40;" xml:space="preserve">
<style type="text/css">
	.st0{fill:#7A503F;}
</style>
<g>
	<path class="st0" d="M33.9,40L6.2,40C2.5,40,0,36.8,0,33.3L0,6.6c0-3.2,2.4-6.4,5.8-6.4L33.3,0C37.1,0,40,2.8,40,6.6l0,27.1
		C40,37,37.4,40,33.9,40z M29.4,28.2c1.5-0.4,2.4-1.4,2.6-2.7c0.5-3.6,0.5-7.2,0.1-10.8c-0.2-1.7-1.4-2.9-3.2-3
		c-6-0.6-11.9-0.6-17.8,0.1c-1.6,0.2-2.8,1.3-3,2.8c-0.5,3.6-0.4,7.1,0,10.7c0.2,1.6,1.3,2.7,2.9,2.9C17.1,28.9,23.1,28.9,29.4,28.2
		z"/>
	<polygon class="st0" points="23.8,20 17.6,23.7 17.6,16.4 	"/>
</g>
</svg>
