<?xml version="1.0" encoding="UTF-8"?>
<svg id="Capa_2" data-name="Capa 2" xmlns="http://www.w3.org/2000/svg" viewBox="0 0 20 30">
  <defs>
    <style>
      .cls-1 {
        fill: #3a3a3a;
      }
    </style>
  </defs>
  <g id="Capa_1-2" data-name="Capa 1">
    <path class="cls-1" d="M19.49,29.33c.36-.4.54-.91.5-1.44-.04-.54-.31-1.02-.73-1.35L5.06,14.96,19.04,3.43c.42-.35.67-.84.69-1.38.03-.53-.17-1.04-.55-1.43-.76-.78-2-.83-2.83-.14L.77,13.35C.28,13.77,0,14.36,0,14.99c0,.01,0,.02,0,.03.01.64.31,1.24.82,1.64l15.85,12.89c.86.67,2.1.58,2.83-.22Z"/>
  </g>
</svg>