<?xml version="1.0" encoding="UTF-8"?>
<svg id="Capa_2" data-name="Capa 2" xmlns="http://www.w3.org/2000/svg" viewBox="0 0 30 30">
  <defs>
    <style>
      .cls-1 {
        fill: #3a3a3a;
      }
    </style>
  </defs>
  <g id="Capa_1-2" data-name="Capa 1">
    <path class="cls-1" d="M17.72,15L29.44,3.28c.75-.75.75-1.97,0-2.72-.75-.75-1.97-.75-2.72,0l-11.72,11.72L3.28.56C2.53-.19,1.31-.19.56.56-.19,1.31-.19,2.53.56,3.28l11.72,11.72L.56,26.72c-.75.75-.75,1.97,0,2.72.38.37.87.56,1.36.56s.98-.19,1.36-.56l11.72-11.72,11.72,11.72c.38.37.87.56,1.36.56s.98-.19,1.36-.56c.75-.75.75-1.97,0-2.72l-11.72-11.72Z"/>
  </g>
</svg>