<?xml version="1.0" encoding="UTF-8"?>
<svg id="Capa_2" data-name="Capa 2" xmlns="http://www.w3.org/2000/svg" viewBox="0 0 20 30">
  <defs>
    <style>
      .cls-1 {
        fill: #3a3a3a;
      }
    </style>
  </defs>
  <g id="Capa_1-2" data-name="Capa 1">
    <path class="cls-1" d="M.51.67C.14,1.07-.04,1.58,0,2.11c.04.54.31,1.02.73,1.35l14.2,11.58L.96,26.57c-.42.35-.67.84-.69,1.38-.03.53.17,1.04.55,1.43.76.78,2,.83,2.83.14l15.59-12.87c.49-.41.77-1.01.77-1.63,0-.01,0-.02,0-.03-.01-.64-.31-1.24-.82-1.64L3.33.45C2.48-.23,1.23-.13.51.67Z"/>
  </g>
</svg>